<?xml version="1.0" encoding="UTF-8" standalone="yes"?>
<svg version="1.2" width="128.000000pt" height="128.000000pt" viewBox="0 0 128.000000 128.000000" preserveAspectRatio="xMidYMid meet" baseProfile="tiny-ps" xmlns="http://www.w3.org/2000/svg">
  <title>bimi-svg-tiny-12-ps</title>
  <g transform="translate(0.000000,128.000000) scale(0.100000,-0.100000)" fill="#000000" stroke="none">
    <path d="M0 640 l0 -640 640 0 640 0 0 640 0 640 -640 0 -640 0 0 -640z m743&#xA;451 c59 -63 107 -119 106 -125 0 -6 -52 -65 -115 -131 l-114 -120 0 248 c0&#xA;137 4 247 8 245 5 -1 57 -54 115 -117z m-248 -41 l63 0 7 -166 c4 -91 5 -167&#xA;3 -169 -2 -2 -82 75 -178 172 l-175 175 109 -6 c60 -3 137 -6 171 -6z m520&#xA;-277 l-7 -73 -62 0 c-35 0 -112 -3 -172 -6 l-109 -6 175 176 175 176 3 -97 c2&#xA;-54 0 -131 -3 -170z m-681 80 c22 -20 78 -72 124 -115 l83 -78 -248 0 -248 1&#xA;120 114 c66 63 122 115 124 115 2 0 22 -17 45 -37z m316 -182 c13 -25 4 -48&#xA;-21 -56 -26 -8 -49 11 -49 40 0 37 52 48 70 16z m415 -146 c-66 -63 -124 -114&#xA;-130 -114 -5 0 -64 51 -130 114 l-120 114 250 0 250 1 -120 -115z m-685 -90&#xA;c-202 -202 -185 -204 -173 20 l8 140 135 5 c74 3 151 7 170 8 34 2 30 -3 -140&#xA;-173z m588 -193 c-18 -2 -93 -1 -165 3 l-132 7 -6 32 c-2 17 -6 93 -7 168 l-3&#xA;138 173 -173 c172 -171 172 -172 140 -175z m-368 84 l0 -244 -72 77 c-40 42&#xA;-92 97 -117 123 l-44 47 113 120 c62 67 115 121 117 121 1 0 3 -110 3 -244z"/>
  </g>
</svg>